
<svg version="1.1" id="Layer_1" xmlns="http://www.w3.org/2000/svg" x="0px" y="0px"
	 viewBox="0 0 1803.3 221.4"  style="enable-background:new 0 0 1803.3 221.4;" xml:space="preserve">
<style type="text/css">
	.st0{fill-rule:evenodd;clip-rule:evenodd;}
</style>
<g>
	<path class="st0" d="M1740.5,201.6c-11,0-21.4-2-31.2-5.9c-9.6-4.1-18-9.8-25-17.2c-6.9-7.4-12.1-16.1-15.6-26.2l30-13.5
		c4.4,9.6,10.5,17.2,18.2,22.7c7.9,5.5,16.5,8.3,26,8.3c5,0,9.4-0.8,13-2.4c3.6-1.6,6.5-3.7,8.5-6.4c2.1-2.8,3.1-6.1,3.1-9.9
		c0-4.1-1.3-7.6-3.8-10.4c-2.5-3-6.5-5.4-11.8-7.1l-34.5-11.3c-14-4.6-24.6-11-31.7-19.4c-7.1-8.5-10.6-18.7-10.6-30.5
		c0-10.4,2.5-19.5,7.6-27.4c5.2-7.9,12.4-14,21.5-18.4c9.3-4.4,19.9-6.6,31.9-6.6c10.6,0,20.3,1.8,29.3,5.4
		c9,3.6,16.7,8.7,23.2,15.4c6.6,6.6,11.6,14.6,14.9,23.9L1773.6,78c-3.3-8.2-8.3-14.6-14.9-19.1c-6.6-4.7-14.2-7.1-22.7-7.1
		c-4.9,0-9.2,0.8-13,2.4c-3.8,1.6-6.7,3.9-8.7,6.9c-2,2.8-3.1,6.1-3.1,9.9c0,4.1,1.3,7.7,4,10.9c2.7,3,6.7,5.4,12,7.1l33.8,10.9
		c14.2,4.6,24.7,10.9,31.7,19.1c7.1,8.2,10.6,18.2,10.6,30c0,10.2-2.7,19.4-8,27.4c-5.4,7.9-12.8,14.1-22.2,18.7
		C1763.8,199.4,1752.9,201.6,1740.5,201.6z"/>
	<path class="st0" d="M1556.3,195.7c9.8,3.9,20.2,5.9,31.2,5.9c12.4,0,23.3-2.2,32.6-6.6c9.4-4.6,16.9-10.8,22.2-18.7
		c5.4-8,8-17.2,8-27.4c0-11.8-3.5-21.8-10.6-30c-6.9-8.2-17.5-14.6-31.7-19.1l-33.8-10.9c-5.4-1.7-9.4-4.1-12-7.1
		c-2.7-3.2-4-6.8-4-10.9c0-3.8,1-7.1,3.1-9.9c2-3,5-5.3,8.7-6.9c3.8-1.6,8.1-2.4,13-2.4c8.5,0,16.1,2.4,22.7,7.1
		c6.6,4.6,11.6,10.9,14.9,19.1l29.8-13.5c-3.3-9.3-8.3-17.2-14.9-23.9c-6.5-6.6-14.2-11.7-23.2-15.4c-9-3.6-18.7-5.4-29.3-5.4
		c-12,0-22.6,2.2-31.9,6.6c-9.1,4.4-16.3,10.6-21.5,18.4c-5,7.9-7.6,17-7.6,27.4c0,11.8,3.5,22,10.6,30.5
		c7.1,8.3,17.6,14.8,31.7,19.4l34.5,11.3c5.3,1.7,9.3,4.1,11.8,7.1c2.5,2.8,3.8,6.3,3.8,10.4c0,3.8-1,7.1-3.1,9.9
		c-2,2.7-4.9,4.8-8.5,6.4c-3.6,1.6-8,2.4-13,2.4c-9.4,0-18.1-2.8-26-8.3c-7.7-5.5-13.8-13.1-18.2-22.7l-30,13.5
		c3.5,10.1,8.7,18.8,15.6,26.2C1538.3,185.8,1546.7,191.6,1556.3,195.7z"/>
	<polygon class="st0" points="1384.3,198.7 1384.3,22.7 1502.7,22.7 1502.7,54.6 1420.9,54.6 1420.9,94.5 1498,94.5 1498,126.4 
		1420.9,126.4 1420.9,166.8 1502.7,166.8 1502.7,198.7 	"/>
	<polygon class="st0" points="1255.1,22.7 1255.1,198.7 1366.1,198.7 1366.1,166.8 1291.7,166.8 1291.7,22.7 	"/>
	<polygon class="st0" points="1115.9,198.7 1115.9,22.7 1234.3,22.7 1234.3,54.6 1152.6,54.6 1152.6,94.5 1229.6,94.5 1229.6,126.4 
		1152.6,126.4 1152.6,166.8 1234.3,166.8 1234.3,198.7 	"/>
	<path class="st0" d="M978.7,195c11,4.4,22.9,6.6,35.7,6.6c10.2,0,20.4-1.5,30.5-4.5c10.1-3.2,19.4-8,27.9-14.4
		c8.7-6.6,15.7-15.2,21-25.8V98.3h-81.3V129h47v17.2c-1.6,2.7-3.6,5.2-5.9,7.6c-4.9,4.7-10.7,8.3-17.5,10.9
		c-6.8,2.5-13.9,3.8-21.3,3.8c-9.9,0-19.1-2.3-27.4-6.9c-8.2-4.6-14.8-11.2-19.8-19.8c-4.9-8.7-7.3-19.1-7.3-31.4
		c0-11.7,2.2-21.7,6.6-30.2c4.6-8.7,10.7-15.4,18.4-20.1c7.9-4.7,16.8-7.1,26.7-7.1c11,0,20.2,2.8,27.6,8.5
		c7.6,5.5,12.8,12.5,15.8,21l32.4-15.6c-3-8.7-8-16.5-15.1-23.6c-7.1-7.1-15.8-12.8-26-17c-10.1-4.3-21.5-6.4-34.3-6.4
		c-12.9,0-24.8,2.3-35.7,6.9c-10.9,4.6-20.3,10.9-28.4,19.1c-7.9,8-14,17.6-18.4,28.6c-4.3,11-6.4,22.9-6.4,35.7
		c0,13.4,2.3,25.7,6.9,36.9c4.7,11,11.2,20.6,19.4,28.8C958,184,967.7,190.4,978.7,195z"/>
	<path class="st0" d="M893.8,65.2C886.1,52,875.2,41.6,861.2,34c-14-7.6-30.6-11.3-49.6-11.3h-57.4v176h57.4
		c19.1,0,35.6-3.8,49.6-11.3c14-7.6,24.9-18,32.6-31.2c7.7-13.4,11.6-28.6,11.6-45.6C905.4,93.6,901.5,78.5,893.8,65.2z
		 M861.6,140.4c-4.6,8.3-11,14.9-19.4,19.6c-8.3,4.6-18.3,6.9-29.8,6.9h-21.7V54.6h21.7c11.5,0,21.4,2.3,29.8,6.9
		c8.3,4.6,14.8,11,19.4,19.4c4.7,8.3,7.1,18.3,7.1,29.8C868.7,121.9,866.4,131.9,861.6,140.4z"/>
	<rect x="686.3" y="22.7" class="st0" width="36.6" height="176"/>
	<path class="st0" d="M658.2,172.7c-0.3-8.7-0.5-17.3-0.5-26c0-9.3-1.9-16.8-5.7-22.4c-1.9-3.1-4.4-5.7-7.5-7.9
		c3.1-3.5,5.7-7.4,7.8-11.7c3.8-7.4,5.7-16,5.7-25.8c0-12.3-2.7-22.6-8-31c-5.4-8.3-12.8-14.6-22.2-18.9c-9.3-4.3-20-6.4-32.1-6.4
		H528v176h36.6v-63.8h40.9c10.4,0,15.6,4.8,15.6,14.4c0,8.2,0.2,16.4,0.5,24.6c0.3,8.2,1,16.5,2.1,24.8h36.6
		C659.2,190.1,658.5,181.4,658.2,172.7z M618,91.5c-2,3.6-5,6.5-8.7,8.5c-3.8,2-8.3,3.1-13.5,3.1h-31.2V54.6h31.2
		c5.2,0,9.7,1,13.5,3.1c3.8,2,6.7,4.9,8.7,8.5c2.2,3.6,3.3,7.9,3.3,12.8C621.3,83.7,620.2,87.8,618,91.5z"/>
	<path class="st0" d="M501.7,125.5c-1.9-6-5.4-11.5-10.4-16.5c-1.8-1.8-4-3.6-6.4-5.2c2.3-2.3,4.3-4.7,5.9-7.3
		c4.3-7.1,6.4-14.5,6.4-22.2c0-10.9-2.3-20.1-6.9-27.6c-4.6-7.7-11.2-13.6-19.8-17.7c-8.7-4.1-19.1-6.1-31.2-6.1h-74.4v176h74.4
		c20.5,0,36.5-4.8,48-14.4c11.5-9.6,17.2-23.1,17.2-40.4C504.5,137.5,503.6,131.3,501.7,125.5z M401.5,53.4h40.4
		c5.7,0,10.2,1.7,13.5,5c3.5,3.2,5.2,7.4,5.2,12.8c0,5.4-1.7,9.7-5.2,13c-3.3,3.2-7.8,4.7-13.5,4.7h-40.4V53.4z M461.3,160.5
		c-4.4,4.3-10.3,6.4-17.7,6.4h-42.1v-46.1h42.1c7.4,0,13.3,2.1,17.7,6.4c4.4,4.3,6.6,9.8,6.6,16.8
		C467.9,150.7,465.7,156.2,461.3,160.5z"/>
</g>
<g>
	<polygon points="71.7,180.6 30.8,221.4 0,190.6 53.9,136.7 53.9,136.7 53.9,136.7 128.9,136.7 128.9,180.6 	"/>
	<polygon points="240,180.6 280.8,221.4 311.7,190.6 257.8,136.7 257.8,136.7 257.8,136.7 182.8,136.7 182.8,180.6 	"/>
	<polygon points="240,40.8 280.8,0 311.7,30.8 257.8,84.7 257.8,84.7 257.8,84.7 182.8,84.7 182.8,40.8 	"/>
	<polygon points="71.7,40.8 30.8,0 0,30.8 53.9,84.7 53.9,84.7 53.9,84.7 128.9,84.7 128.9,40.8 	"/>
</g>
</svg>
