<?xml version="1.0" encoding="utf-8"?>
<!-- Generator: Adobe Illustrator 24.1.3, SVG Export Plug-In . SVG Version: 6.00 Build 0)  -->
<svg version="1.1" id="Layer_1" xmlns="http://www.w3.org/2000/svg" xmlns:xlink="http://www.w3.org/1999/xlink" x="0px" y="0px"
	 viewBox="0 0 154.7 19" style="enable-background:new 0 0 154.7 19;" xml:space="preserve">
<style type="text/css">
	.st0{fill-rule:evenodd;clip-rule:evenodd;fill:url(#SVGID_1_);}
	.st1{fill-rule:evenodd;clip-rule:evenodd;fill:url(#SVGID_2_);}
	.st2{fill-rule:evenodd;clip-rule:evenodd;fill:url(#SVGID_3_);}
	.st3{fill-rule:evenodd;clip-rule:evenodd;fill:url(#SVGID_4_);}
	.st4{fill-rule:evenodd;clip-rule:evenodd;fill:url(#SVGID_5_);}
	.st5{fill-rule:evenodd;clip-rule:evenodd;fill:url(#SVGID_6_);}
	.st6{fill-rule:evenodd;clip-rule:evenodd;fill:url(#SVGID_7_);}
	.st7{fill-rule:evenodd;clip-rule:evenodd;fill:url(#SVGID_8_);}
	.st8{fill-rule:evenodd;clip-rule:evenodd;fill:url(#SVGID_9_);}
	.st9{fill-rule:evenodd;clip-rule:evenodd;fill:url(#SVGID_10_);}
	.st10{fill:url(#SVGID_11_);}
	.st11{fill:url(#SVGID_12_);}
	.st12{fill:url(#SVGID_13_);}
	.st13{fill:url(#SVGID_14_);}
</style>
<g>
	<g>
		<linearGradient id="SVGID_1_" gradientUnits="userSpaceOnUse" x1="0.5952" y1="9.5" x2="156.29" y2="9.5">
			<stop  offset="0" style="stop-color:#737D9F"/>
			<stop  offset="0.155" style="stop-color:#C5C6C4"/>
			<stop  offset="0.3" style="stop-color:#A3B6D4"/>
			<stop  offset="0.665" style="stop-color:#D1E2E6"/>
			<stop  offset="0.835" style="stop-color:#B9ABA7"/>
			<stop  offset="1" style="stop-color:#D1E2E6"/>
		</linearGradient>
		<path class="st0" d="M149.3,17.3c-0.9,0-1.8-0.2-2.7-0.5c-0.8-0.4-1.5-0.8-2.1-1.5c-0.6-0.6-1-1.4-1.3-2.3l2.6-1.2
			c0.4,0.8,0.9,1.5,1.6,1.9c0.7,0.5,1.4,0.7,2.2,0.7c0.4,0,0.8-0.1,1.1-0.2c0.3-0.1,0.6-0.3,0.7-0.5c0.2-0.2,0.3-0.5,0.3-0.9
			c0-0.4-0.1-0.6-0.3-0.9c-0.2-0.3-0.6-0.5-1-0.6l-3-1c-1.2-0.4-2.1-0.9-2.7-1.7c-0.6-0.7-0.9-1.6-0.9-2.6c0-0.9,0.2-1.7,0.6-2.4
			c0.4-0.7,1.1-1.2,1.8-1.6c0.8-0.4,1.7-0.6,2.7-0.6c0.9,0,1.7,0.2,2.5,0.5c0.8,0.3,1.4,0.8,2,1.3c0.6,0.6,1,1.3,1.3,2l-2.6,1.2
			c-0.3-0.7-0.7-1.3-1.3-1.6c-0.6-0.4-1.2-0.6-1.9-0.6c-0.4,0-0.8,0.1-1.1,0.2c-0.3,0.1-0.6,0.3-0.8,0.6c-0.2,0.2-0.3,0.5-0.3,0.9
			c0,0.4,0.1,0.7,0.3,0.9c0.2,0.3,0.6,0.5,1,0.6l2.9,0.9c1.2,0.4,2.1,0.9,2.7,1.6c0.6,0.7,0.9,1.6,0.9,2.6c0,0.9-0.2,1.7-0.7,2.4
			c-0.5,0.7-1.1,1.2-1.9,1.6C151.3,17.1,150.4,17.3,149.3,17.3z"/>
		<linearGradient id="SVGID_2_" gradientUnits="userSpaceOnUse" x1="0.5952" y1="9.5" x2="156.29" y2="9.5">
			<stop  offset="0" style="stop-color:#737D9F"/>
			<stop  offset="0.155" style="stop-color:#C5C6C4"/>
			<stop  offset="0.3" style="stop-color:#A3B6D4"/>
			<stop  offset="0.665" style="stop-color:#D1E2E6"/>
			<stop  offset="0.835" style="stop-color:#B9ABA7"/>
			<stop  offset="1" style="stop-color:#D1E2E6"/>
		</linearGradient>
		<path class="st1" d="M133.5,16.8c0.8,0.3,1.7,0.5,2.7,0.5c1.1,0,2-0.2,2.8-0.6c0.8-0.4,1.4-0.9,1.9-1.6c0.5-0.7,0.7-1.5,0.7-2.4
			c0-1-0.3-1.9-0.9-2.6c-0.6-0.7-1.5-1.3-2.7-1.6l-2.9-0.9c-0.5-0.1-0.8-0.4-1-0.6c-0.2-0.3-0.3-0.6-0.3-0.9c0-0.3,0.1-0.6,0.3-0.9
			c0.2-0.3,0.4-0.5,0.8-0.6c0.3-0.1,0.7-0.2,1.1-0.2c0.7,0,1.4,0.2,1.9,0.6c0.6,0.4,1,0.9,1.3,1.6l2.6-1.2c-0.3-0.8-0.7-1.5-1.3-2
			c-0.6-0.6-1.2-1-2-1.3c-0.8-0.3-1.6-0.5-2.5-0.5c-1,0-1.9,0.2-2.7,0.6c-0.8,0.4-1.4,0.9-1.8,1.6c-0.4,0.7-0.6,1.5-0.6,2.4
			c0,1,0.3,1.9,0.9,2.6c0.6,0.7,1.5,1.3,2.7,1.7l3,1c0.5,0.1,0.8,0.4,1,0.6c0.2,0.2,0.3,0.5,0.3,0.9c0,0.3-0.1,0.6-0.3,0.9
			c-0.2,0.2-0.4,0.4-0.7,0.5c-0.3,0.1-0.7,0.2-1.1,0.2c-0.8,0-1.6-0.2-2.2-0.7c-0.7-0.5-1.2-1.1-1.6-1.9l-2.6,1.2
			c0.3,0.9,0.7,1.6,1.3,2.3C132,15.9,132.7,16.4,133.5,16.8z"/>
		<linearGradient id="SVGID_3_" gradientUnits="userSpaceOnUse" x1="0.5952" y1="9.5" x2="156.29" y2="9.5">
			<stop  offset="0" style="stop-color:#737D9F"/>
			<stop  offset="0.155" style="stop-color:#C5C6C4"/>
			<stop  offset="0.3" style="stop-color:#A3B6D4"/>
			<stop  offset="0.665" style="stop-color:#D1E2E6"/>
			<stop  offset="0.835" style="stop-color:#B9ABA7"/>
			<stop  offset="1" style="stop-color:#D1E2E6"/>
		</linearGradient>
		<polygon class="st2" points="118.8,17.1 118.8,1.9 128.9,1.9 128.9,4.7 121.9,4.7 121.9,8.1 128.5,8.1 128.5,10.8 121.9,10.8 
			121.9,14.3 128.9,14.3 128.9,17.1 		"/>
		<linearGradient id="SVGID_4_" gradientUnits="userSpaceOnUse" x1="0.5952" y1="9.5" x2="156.29" y2="9.5">
			<stop  offset="0" style="stop-color:#737D9F"/>
			<stop  offset="0.155" style="stop-color:#C5C6C4"/>
			<stop  offset="0.3" style="stop-color:#A3B6D4"/>
			<stop  offset="0.665" style="stop-color:#D1E2E6"/>
			<stop  offset="0.835" style="stop-color:#B9ABA7"/>
			<stop  offset="1" style="stop-color:#D1E2E6"/>
		</linearGradient>
		<polygon class="st3" points="107.7,1.9 107.7,17.1 117.2,17.1 117.2,14.3 110.8,14.3 110.8,1.9 		"/>
		<linearGradient id="SVGID_5_" gradientUnits="userSpaceOnUse" x1="0.5952" y1="9.5" x2="156.29" y2="9.5">
			<stop  offset="0" style="stop-color:#737D9F"/>
			<stop  offset="0.155" style="stop-color:#C5C6C4"/>
			<stop  offset="0.3" style="stop-color:#A3B6D4"/>
			<stop  offset="0.665" style="stop-color:#D1E2E6"/>
			<stop  offset="0.835" style="stop-color:#B9ABA7"/>
			<stop  offset="1" style="stop-color:#D1E2E6"/>
		</linearGradient>
		<polygon class="st4" points="95.8,17.1 95.8,1.9 105.9,1.9 105.9,4.7 98.9,4.7 98.9,8.1 105.5,8.1 105.5,10.8 98.9,10.8 
			98.9,14.3 105.9,14.3 105.9,17.1 		"/>
		<linearGradient id="SVGID_6_" gradientUnits="userSpaceOnUse" x1="0.5952" y1="9.5" x2="156.29" y2="9.5">
			<stop  offset="0" style="stop-color:#737D9F"/>
			<stop  offset="0.155" style="stop-color:#C5C6C4"/>
			<stop  offset="0.3" style="stop-color:#A3B6D4"/>
			<stop  offset="0.665" style="stop-color:#D1E2E6"/>
			<stop  offset="0.835" style="stop-color:#B9ABA7"/>
			<stop  offset="1" style="stop-color:#D1E2E6"/>
		</linearGradient>
		<path class="st5" d="M84,16.7c0.9,0.4,2,0.6,3.1,0.6c0.9,0,1.8-0.1,2.6-0.4c0.9-0.3,1.7-0.7,2.4-1.2c0.7-0.6,1.3-1.3,1.8-2.2v-5
			h-7v2.6h4v1.5c-0.1,0.2-0.3,0.4-0.5,0.6c-0.4,0.4-0.9,0.7-1.5,0.9c-0.6,0.2-1.2,0.3-1.8,0.3c-0.9,0-1.6-0.2-2.4-0.6
			c-0.7-0.4-1.3-1-1.7-1.7c-0.4-0.7-0.6-1.6-0.6-2.7c0-1,0.2-1.9,0.6-2.6c0.4-0.7,0.9-1.3,1.6-1.7c0.7-0.4,1.4-0.6,2.3-0.6
			c0.9,0,1.7,0.2,2.4,0.7c0.6,0.5,1.1,1.1,1.4,1.8l2.8-1.3c-0.3-0.7-0.7-1.4-1.3-2c-0.6-0.6-1.4-1.1-2.2-1.5
			c-0.9-0.4-1.8-0.5-2.9-0.5c-1.1,0-2.1,0.2-3.1,0.6c-0.9,0.4-1.7,0.9-2.4,1.6c-0.7,0.7-1.2,1.5-1.6,2.5c-0.4,0.9-0.5,2-0.5,3.1
			c0,1.1,0.2,2.2,0.6,3.2c0.4,0.9,1,1.8,1.7,2.5C82.2,15.8,83,16.3,84,16.7z"/>
		<linearGradient id="SVGID_7_" gradientUnits="userSpaceOnUse" x1="0.5952" y1="9.5" x2="156.297" y2="9.5">
			<stop  offset="0" style="stop-color:#737D9F"/>
			<stop  offset="0.155" style="stop-color:#C5C6C4"/>
			<stop  offset="0.3" style="stop-color:#A3B6D4"/>
			<stop  offset="0.665" style="stop-color:#D1E2E6"/>
			<stop  offset="0.835" style="stop-color:#B9ABA7"/>
			<stop  offset="1" style="stop-color:#D1E2E6"/>
		</linearGradient>
		<path class="st6" d="M76.7,5.6c-0.7-1.1-1.6-2-2.8-2.7c-1.2-0.6-2.6-1-4.3-1h-4.9v15.1h4.9c1.6,0,3.1-0.3,4.3-1
			c1.2-0.6,2.1-1.5,2.8-2.7c0.7-1.1,1-2.5,1-3.9C77.7,8,77.4,6.7,76.7,5.6z M73.9,12c-0.4,0.7-0.9,1.3-1.7,1.7
			c-0.7,0.4-1.6,0.6-2.6,0.6h-1.9V4.7h1.9c1,0,1.8,0.2,2.6,0.6c0.7,0.4,1.3,0.9,1.7,1.7c0.4,0.7,0.6,1.6,0.6,2.6
			C74.5,10.5,74.3,11.3,73.9,12z"/>
		<linearGradient id="SVGID_8_" gradientUnits="userSpaceOnUse" x1="0.5952" y1="9.5" x2="156.29" y2="9.5">
			<stop  offset="0" style="stop-color:#737D9F"/>
			<stop  offset="0.155" style="stop-color:#C5C6C4"/>
			<stop  offset="0.3" style="stop-color:#A3B6D4"/>
			<stop  offset="0.665" style="stop-color:#D1E2E6"/>
			<stop  offset="0.835" style="stop-color:#B9ABA7"/>
			<stop  offset="1" style="stop-color:#D1E2E6"/>
		</linearGradient>
		<rect x="58.9" y="1.9" class="st7" width="3.1" height="15.1"/>
		<linearGradient id="SVGID_9_" gradientUnits="userSpaceOnUse" x1="0.5952" y1="9.5" x2="156.29" y2="9.5">
			<stop  offset="0" style="stop-color:#737D9F"/>
			<stop  offset="0.155" style="stop-color:#C5C6C4"/>
			<stop  offset="0.3" style="stop-color:#A3B6D4"/>
			<stop  offset="0.665" style="stop-color:#D1E2E6"/>
			<stop  offset="0.835" style="stop-color:#B9ABA7"/>
			<stop  offset="1" style="stop-color:#D1E2E6"/>
		</linearGradient>
		<path class="st8" d="M56.5,14.8c0-0.7,0-1.5,0-2.2c0-0.8-0.2-1.4-0.5-1.9c-0.2-0.3-0.4-0.5-0.6-0.7c0.3-0.3,0.5-0.6,0.7-1
			c0.3-0.6,0.5-1.4,0.5-2.2c0-1.1-0.2-1.9-0.7-2.7c-0.5-0.7-1.1-1.3-1.9-1.6c-0.8-0.4-1.7-0.5-2.8-0.5h-5.8v15.1h3.1v-5.5H52
			c0.9,0,1.3,0.4,1.3,1.2c0,0.7,0,1.4,0,2.1c0,0.7,0.1,1.4,0.2,2.1h3.1C56.6,16.3,56.5,15.6,56.5,14.8z M53,7.8
			c-0.2,0.3-0.4,0.6-0.8,0.7c-0.3,0.2-0.7,0.3-1.2,0.3h-2.7V4.7h2.7c0.4,0,0.8,0.1,1.2,0.3c0.3,0.2,0.6,0.4,0.8,0.7
			c0.2,0.3,0.3,0.7,0.3,1.1C53.3,7.2,53.2,7.5,53,7.8z"/>
		<linearGradient id="SVGID_10_" gradientUnits="userSpaceOnUse" x1="0.5952" y1="9.5" x2="156.29" y2="9.5">
			<stop  offset="0" style="stop-color:#737D9F"/>
			<stop  offset="0.155" style="stop-color:#C5C6C4"/>
			<stop  offset="0.3" style="stop-color:#A3B6D4"/>
			<stop  offset="0.665" style="stop-color:#D1E2E6"/>
			<stop  offset="0.835" style="stop-color:#B9ABA7"/>
			<stop  offset="1" style="stop-color:#D1E2E6"/>
		</linearGradient>
		<path class="st9" d="M43,10.8c-0.2-0.5-0.5-1-0.9-1.4C42,9.2,41.8,9,41.6,8.9c0.2-0.2,0.4-0.4,0.5-0.6c0.4-0.6,0.5-1.2,0.5-1.9
			c0-0.9-0.2-1.7-0.6-2.4c-0.4-0.7-1-1.2-1.7-1.5c-0.7-0.4-1.6-0.5-2.7-0.5h-6.4v15.1h6.4c1.8,0,3.1-0.4,4.1-1.2
			c1-0.8,1.5-2,1.5-3.5C43.3,11.8,43.2,11.3,43,10.8z M34.4,4.6h3.5c0.5,0,0.9,0.1,1.2,0.4c0.3,0.3,0.4,0.6,0.4,1.1
			c0,0.5-0.1,0.8-0.4,1.1c-0.3,0.3-0.7,0.4-1.2,0.4h-3.5V4.6z M39.6,13.8c-0.4,0.4-0.9,0.5-1.5,0.5h-3.6v-4h3.6
			c0.6,0,1.1,0.2,1.5,0.5c0.4,0.4,0.6,0.8,0.6,1.4C40.1,12.9,40,13.4,39.6,13.8z"/>
	</g>
	<g>
		<linearGradient id="SVGID_11_" gradientUnits="userSpaceOnUse" x1="0.5952" y1="15.3651" x2="156.29" y2="15.3651">
			<stop  offset="0" style="stop-color:#737D9F"/>
			<stop  offset="0.155" style="stop-color:#C5C6C4"/>
			<stop  offset="0.3" style="stop-color:#A3B6D4"/>
			<stop  offset="0.665" style="stop-color:#D1E2E6"/>
			<stop  offset="0.835" style="stop-color:#B9ABA7"/>
			<stop  offset="1" style="stop-color:#D1E2E6"/>
		</linearGradient>
		<polygon class="st10" points="6.1,15.5 2.6,19 0,16.4 4.6,11.7 4.6,11.7 4.6,11.7 11.1,11.7 11.1,15.5 		"/>
		<linearGradient id="SVGID_12_" gradientUnits="userSpaceOnUse" x1="0.5952" y1="15.3651" x2="156.29" y2="15.3651">
			<stop  offset="0" style="stop-color:#737D9F"/>
			<stop  offset="0.155" style="stop-color:#C5C6C4"/>
			<stop  offset="0.3" style="stop-color:#A3B6D4"/>
			<stop  offset="0.665" style="stop-color:#D1E2E6"/>
			<stop  offset="0.835" style="stop-color:#B9ABA7"/>
			<stop  offset="1" style="stop-color:#D1E2E6"/>
		</linearGradient>
		<polygon class="st11" points="20.6,15.5 24.1,19 26.7,16.4 22.1,11.7 22.1,11.7 22.1,11.7 15.7,11.7 15.7,15.5 		"/>
		<linearGradient id="SVGID_13_" gradientUnits="userSpaceOnUse" x1="0.5952" y1="3.6349" x2="156.29" y2="3.6349">
			<stop  offset="0" style="stop-color:#737D9F"/>
			<stop  offset="0.155" style="stop-color:#C5C6C4"/>
			<stop  offset="0.3" style="stop-color:#A3B6D4"/>
			<stop  offset="0.665" style="stop-color:#D1E2E6"/>
			<stop  offset="0.835" style="stop-color:#B9ABA7"/>
			<stop  offset="1" style="stop-color:#D1E2E6"/>
		</linearGradient>
		<polygon class="st12" points="20.6,3.5 24.1,0 26.7,2.6 22.1,7.3 22.1,7.3 22.1,7.3 15.7,7.3 15.7,3.5 		"/>
		<linearGradient id="SVGID_14_" gradientUnits="userSpaceOnUse" x1="0.5952" y1="3.6349" x2="156.29" y2="3.6349">
			<stop  offset="0" style="stop-color:#737D9F"/>
			<stop  offset="0.155" style="stop-color:#C5C6C4"/>
			<stop  offset="0.3" style="stop-color:#A3B6D4"/>
			<stop  offset="0.665" style="stop-color:#D1E2E6"/>
			<stop  offset="0.835" style="stop-color:#B9ABA7"/>
			<stop  offset="1" style="stop-color:#D1E2E6"/>
		</linearGradient>
		<polygon class="st13" points="6.1,3.5 2.6,0 0,2.6 4.6,7.3 4.6,7.3 4.6,7.3 11.1,7.3 11.1,3.5 		"/>
	</g>
</g>
</svg>
