
<svg version="1.1" id="Layer_1" xmlns="http://www.w3.org/2000/svg" xmlns:xlink="http://www.w3.org/1999/xlink" x="24px" y="24px"
	 viewBox="0 0 311.7 221.4" style="enable-background:new 0 0 311.7 221.4;" xml:space="preserve">
<g>
	<polygon points="71.7,180.6 30.8,221.4 0,190.6 53.9,136.7 53.9,136.7 53.9,136.7 128.9,136.7 128.9,180.6 	"/>
	<polygon points="240,180.6 280.8,221.4 311.7,190.6 257.8,136.7 257.8,136.7 257.8,136.7 182.8,136.7 182.8,180.6 	"/>
	<polygon points="240,40.8 280.8,0 311.7,30.8 257.8,84.7 257.8,84.7 257.8,84.7 182.8,84.7 182.8,40.8 	"/>
	<polygon points="71.7,40.8 30.8,0 0,30.8 53.9,84.7 53.9,84.7 53.9,84.7 128.9,84.7 128.9,40.8 	"/>
</g>
</svg>
